<mxfile host="app.diagrams.net" modified="2024-02-06T03:40:39.755Z" agent="Mozilla/5.0 (Windows NT 10.0; Win64; x64) AppleWebKit/537.36 (KHTML, like Gecko) Chrome/121.0.0.0 Safari/537.36" version="23.0.0" etag="S5Ey4c5tbUTO70xF1dHD" type="github">
  <diagram name="Page-1" id="6dK9vTaNsc3WpWrrGK61">
    <mxGraphModel>
      <root>
        <mxCell id="0" />
        <mxCell id="1" parent="0" />
      </root>
    </mxGraphModel>
  </diagram>
</mxfile>
